<svg enable-background="new 0 0 100 99.99" height="316.227766" viewBox="0 0 100 99.99" width="316.227766" xmlns="http://www.w3.org/2000/svg" xmlns:xlink="http://www.w3.org/1999/xlink"><clipPath id="a"><path d="m0 49.99c0 27.62 22.38 50 50 50 27.48 0 49.79-22.18 50-49.62v-.75c-.2-27.44-22.52-49.62-50-49.62-27.62 0-50 22.38-50 49.99"/></clipPath><radialGradient id="b" cx="-970.5927" cy="469.1556" gradientTransform="matrix(30.9655 0 0 -30.9655 30104.8379 14577.6094)" gradientUnits="userSpaceOnUse" r="1.6146"><stop offset="0" stop-color="#fff"/><stop offset=".3342" stop-color="#fefeff"/><stop offset=".4927" stop-color="#f8fafd"/><stop offset=".6142" stop-color="#ecf2fa"/><stop offset=".7168" stop-color="#dce7f5"/><stop offset=".8075" stop-color="#c6d8ef"/><stop offset=".8898" stop-color="#aac6e8"/><stop offset=".9642" stop-color="#86b1df"/><stop offset="1" stop-color="#6fa6da"/></radialGradient><clipPath id="c"><path d="m16.97 49.98c0 10.21 8.27 18.47 18.47 18.47s18.47-8.26 18.47-18.47c0-10.2-8.27-18.47-18.47-18.47s-18.47 8.28-18.47 18.47"/></clipPath><radialGradient id="d" cx="-929.822" cy="465.4006" gradientTransform="matrix(11.4406 0 0 -11.4406 10673.1377 5374.4321)" gradientUnits="userSpaceOnUse" r="1.6146"><stop offset="0" stop-color="#fff"/><stop offset=".3031" stop-color="#fffffe"/><stop offset=".4406" stop-color="#fffdf8"/><stop offset=".5446" stop-color="#fff9ee"/><stop offset=".6318" stop-color="#fff4de"/><stop offset=".7085" stop-color="#feecc9"/><stop offset=".7779" stop-color="#fde3ae"/><stop offset=".8417" stop-color="#fcd88d"/><stop offset=".9011" stop-color="#fbcb64"/><stop offset=".9549" stop-color="#f9bd33"/><stop offset="1" stop-color="#f7af00"/></radialGradient><clipPath id="e"><path d="m32 37.2-3.04 2.4v3.93h-3.94l-2.39 3.12v6.61l2.39 3.04h3.94v3.93l3.04 2.39h6.61l3.12-2.39v-3.93h3.93l2.4-3.04v-6.61l-2.4-3.12h-3.93v-3.93l-3.12-2.4z"/></clipPath><radialGradient id="f" cx="-900.3912" cy="462.7047" gradientTransform="matrix(7.8724 0 0 -7.8724 7123.6118 3692.5244)" gradientUnits="userSpaceOnUse" r="1.6147"><stop offset="0" stop-color="#fff"/><stop offset=".0122" stop-color="#fff"/><stop offset=".1936" stop-color="#dae8cf"/><stop offset=".4097" stop-color="#accd96"/><stop offset=".6064" stop-color="#83b96c"/><stop offset=".7765" stop-color="#60ab51"/><stop offset=".9134" stop-color="#45a443"/><stop offset="1" stop-color="#38a13e"/></radialGradient><clipPath id="g"><path d="m4.66 38.27v.94c1.11.05 1.89.19 2.32.41.72.37 1.07 1.1 1.07 2.2v17.98c0 1.1-.37 1.84-1.12 2.23-.46.23-1.22.36-2.27.38v.94h12.98v-.94c-1.16 0-2.03-.17-2.61-.52s-.87-1.05-.87-2.08v-17.99c0-1.1.36-1.84 1.09-2.21.44-.22 1.23-.35 2.39-.4v-.94z"/></clipPath><linearGradient id="h"><stop offset="0" stop-color="#fff"/><stop offset=".0122" stop-color="#fff"/><stop offset=".2158" stop-color="#c2bbd2"/><stop offset=".4259" stop-color="#8980a9"/><stop offset=".6172" stop-color="#5c578d"/><stop offset=".7827" stop-color="#393f7e"/><stop offset=".9158" stop-color="#213375"/><stop offset="1" stop-color="#192f73"/></linearGradient><radialGradient id="i" cx="-876.1222" cy="460.2881" gradientTransform="matrix(6.1845 0 0 -6.1845 5429.4868 2897.4446)" gradientUnits="userSpaceOnUse" r="1.6146" xlink:href="#h"/><clipPath id="j"><path d="m63.49 37.58c-.1.39-.22.7-.38.93-.16.24-.44.35-.84.35-.18 0-.89-.2-2.15-.61-1.25-.41-2.55-.62-3.89-.62-2.64 0-4.6.79-5.87 2.36-1.28 1.57-1.91 3.26-1.91 5.08 0 1.7.48 3.14 1.45 4.29.96 1.16 2.62 2.33 4.97 3.52l2.36 1.19c1.47.74 2.45 1.34 2.93 1.8.73.7 1.09 1.61 1.09 2.72 0 .95-.35 1.86-1.05 2.73s-1.87 1.3-3.52 1.3c-1.71 0-3.21-.63-4.53-1.89s-2.27-3.28-2.86-6.05h-1.09v9.19h1.07c.1-.41.23-.73.37-.95s.4-.34.78-.34c.11 0 .24.02.39.05.16.03.32.07.48.12l.72.27c.73.29 1.48.5 2.24.64.75.14 1.5.21 2.24.21 3.2 0 5.54-.83 6.99-2.49 1.46-1.66 2.19-3.42 2.19-5.3 0-2-.68-3.71-2.04-5.11-.73-.75-1.71-1.43-2.93-2.05l-2.74-1.38c-2.29-1.15-3.76-2.02-4.42-2.61-.67-.58-1-1.46-1-2.63 0-.98.36-1.81 1.07-2.49.72-.68 1.68-1.03 2.92-1.03 1.75 0 3.23.68 4.46 2.03 1.22 1.35 2.07 2.97 2.56 4.84h1.04v-8.08h-1.1z"/></clipPath><radialGradient id="k" cx="-886.1087" cy="461.4596" gradientTransform="matrix(6.9133 0 0 -6.9133 6182.8804 3240.939)" gradientUnits="userSpaceOnUse" r="1.6147" xlink:href="#h"/><clipPath id="l"><path d="m82.64 38.27v.94c1.12.07 1.88.22 2.3.45.67.37.99 1.09.99 2.16v7.7h-8.84v-7.7c0-1.07.35-1.79 1.05-2.18.42-.23 1.18-.37 2.27-.43v-.94h-12.56v.94c1.09.11 1.83.27 2.21.49.61.37.92 1.08.92 2.12v17.98c0 1.07-.34 1.81-1.03 2.19-.41.23-1.11.37-2.1.42v.94h12.55v-.94c-1.03-.04-1.76-.16-2.19-.38-.75-.39-1.12-1.13-1.12-2.23v-8.56h8.84v8.56c0 1.06-.34 1.79-1.03 2.17-.44.26-1.2.4-2.26.44v.94h12.63v-.94c-.99-.04-1.7-.17-2.12-.4-.74-.39-1.1-1.12-1.1-2.21v-17.98c0-1.05.33-1.77.99-2.14.39-.23 1.14-.39 2.23-.47v-.94z"/></clipPath><radialGradient id="m" cx="-901.3033" cy="462.9444" gradientTransform="matrix(8.1375 0 0 -8.1375 7415.9058 3818.019)" gradientUnits="userSpaceOnUse" r="1.6146" xlink:href="#h"/><path d="m97.49 49.87c0 26.35-21.36 47.71-47.71 47.71s-47.71-21.36-47.71-47.71 21.36-47.7 47.71-47.7c26.35 0 47.71 21.36 47.71 47.7" fill="#fff"/><path clip-path="url(#a)" d="m0 0h100v99.99h-100z" fill="url(#b)"/><path clip-path="url(#c)" d="m16.97 31.51h36.94v36.94h-36.94z" fill="url(#d)"/><path clip-path="url(#e)" d="m22.63 37.2h25.42v25.42h-25.42z" fill="url(#f)"/><path clip-path="url(#g)" d="m4.66 38.27h12.98v25.08h-12.98z" fill="url(#i)"/><path clip-path="url(#j)" d="m48.2 37.58h17.48v26.3h-17.48z" fill="url(#k)"/><path clip-path="url(#l)" d="m67.85 38.27h27.42v25.08h-27.42z" fill="url(#m)"/></svg>